<?xml version="1.0" encoding="UTF-8"?><svg id="SKF_x5F_LOGO" xmlns="http://www.w3.org/2000/svg" viewBox="0 0 172 40"><defs><style>.cls-1{fill:#fff;}</style></defs><path id="S" class="cls-1" d="M50.5,14h-30c-.2761,0-.5-.2239-.5-.5v-7c0-.2761.2239-.5.5-.5l11-.0002c.2761,0,.5.2239.5.5v2.0002c0,.8284.6716,1.5,1.5,1.5h11c.8285,0,1.5-.6716,1.5-1.5V1.5c0-.8284-.6715-1.5-1.5-1.5H7.5c-.8284,0-1.5.6716-1.5,1.5v17c0,.8285.6716,1.5,1.5,1.5h26c.2761,0,.5.2239.5.5v13c0,.2761-.2239.5-.5.5h-15c-.2761,0-.5-.2239-.5-.5v-8c0-.8284-.6715-1.5-1.5-1.5H1.5c-.8284,0-1.5.6716-1.5,1.5v13c0,.8284.6716,1.5,1.5,1.5h49c.8285,0,1.5-.6716,1.5-1.5V15.5c0-.8284-.6715-1.5-1.5-1.5Z"/><path id="K" class="cls-1" d="M110.5,24h-5.8787c-.3978,0-.7794-.1581-1.0607-.4393l-12.7072-12.7072c-.3149-.3149-.0919-.8535.3536-.8535h13.2928c.8284,0,1.5-.6716,1.5-1.5V1.5c0-.8284-.6716-1.5-1.5-1.5h-11.8787c-.3978,0-.7794.1581-1.0607.4393l-12.707,12.7072c-.3151.3149-.8536.0919-.8536-.3536V1.5c0-.8284-.6715-1.5-1.5-1.5h-15c-.8284,0-1.5.6716-1.5,1.5v7c0,.8284.6716,1.5,1.5,1.5h2c.2761,0,.5.2239.5.5v13c0,.2761-.2239.5-.5.5h-2c-.8284,0-1.5.6716-1.5,1.5v13c0,.8284.6716,1.4999,1.5,1.5h15c.8285,0,1.5-.6716,1.5-1.5v-15.293c0-.4454.5386-.6686.8536-.3535l16.707,16.7072c.2812.2812.6628.4393,1.0607.4393h13.8787c.8284,0,1.5-.6716,1.5-1.5v-13c0-.8284-.6716-1.5-1.5-1.5Z"/><path id="F" class="cls-1" d="M172,8.5V1.5c0-.8284-.6716-1.5-1.5-1.5h-49c-.8284,0-1.5.6716-1.5,1.5v7c0,.8284.6716,1.5,1.5,1.5h2c.2761,0,.5.2239.5.5v13c0,.2761-.2239.5-.5.5h-2c-.8284,0-1.5.6716-1.5,1.5v13c0,.8284.6716,1.5,1.5,1.5h19c.8284,0,1.5-.6716,1.5-1.5v-13c0-.8284-.6716-1.5-1.5-1.5h-2c-.2761,0-.5-.2239-.5-.5v-3c0-.2761.2239-.5.5-.5h5c.2724,0,.5021.2162.5001.4886-.0062.8336.6678,1.5114,1.4999,1.5114h11c.8284,0,1.5-.6716,1.5-1.5v-7c0-.8284-.6716-1.5-1.5-1.5h-11c-.8322,0-1.5061.6778-1.4999,1.5114.002.2724-.2276.4886-.5001.4886h-5c-.2761,0-.5-.2239-.5-.5v-7c0-.2761.2239-.5.5-.5h15c.2761,0,.5.2239.5.5v2c0,.8284.6716,1.5,1.5,1.5h15c.8284,0,1.5-.6716,1.5-1.5Z"/></svg>